<?xml version="1.0" encoding="utf-8"?>
<!-- Generator: Adobe Illustrator 26.1.0, SVG Export Plug-In . SVG Version: 6.00 Build 0)  -->
<svg version="1.1" id="Capa_1" xmlns="http://www.w3.org/2000/svg" xmlns:xlink="http://www.w3.org/1999/xlink" x="0px" y="0px"
	 viewBox="0 0 214 98" style="enable-background:new 0 0 214 98;" xml:space="preserve">
<style type="text/css">
	.st0{fill:#DA1F32;}
	.st1{fill:#231F20;}
	.st2{fill:none;stroke:#231F20;stroke-miterlimit:10;}
</style>
<g>
	<g>
		<g>
			<path class="st0" d="M16.3,57.2c0.4,0.1,0.7,0.1,0.9,0.1c0.6-0.3,0.5-0.7,0.4-1.3v-9.4c0-0.3-0.1-2-0.8-2.2c-2.5,0-4.6-1.2-6.2-3
				c-0.7,1.7-1,3.6-1,5.4C9.8,51.5,11.4,56.3,16.3,57.2z M9.1,39.4c-1.2-2.3-1.8-5.1-1.5-7.9c0.8-9.2,5.9-11.1,8.8-11.7
				c2.5-0.5,3.8,1.4,3.7,3.5v9.6c0,1.6-0.9,3.9-2.8,4c-2.4,0-4.2,1-5.4,2.6c1.3,1.7,3.1,2.8,5.1,2.8c0,0,0.3,0,0.6,0.1
				c1.8,0.6,2.3,2.6,2.3,4.3v9.2c0.4,1.8-0.5,3.1-2.3,3.8c0,0-0.8,0-1.8-0.2c-5.9-1.2-8.3-6.7-8.5-12.4c0,0,0-0.8,0.1-1.9
				C7.7,43.1,8.2,41.1,9.1,39.4z M10.6,37.3c1.5-1.6,3.7-2.7,6.5-2.7c0.6-0.2,0.6-1.4,0.6-1.7l0-9.7c0-0.5-0.1-1.4-1-1.2
				c-2.1,0.4-6.3,1.7-6.9,9.6C9.7,33.8,10,35.7,10.6,37.3z M43.3,9.2c1.6,1.5,2.7,3.7,2.7,6.5c0.2,0.6,1.4,0.6,1.7,0.6l9.7,0
				c0.5,0,1.4-0.1,1.2-1c-0.4-2.1-1.7-6.3-9.6-7C46.9,8.2,44.9,8.5,43.3,9.2z M41.2,7.7c2.3-1.2,5.1-1.8,7.9-1.5
				c9.2,0.8,11.1,5.9,11.7,8.8c0.5,2.5-1.3,3.8-3.4,3.7h-9.6c-1.6,0-3.9-0.9-4-2.8c0-2.4-1-4.2-2.6-5.4c-1.7,1.3-2.8,3.1-2.8,5.1
				c0,0,0,0.3-0.1,0.6c-0.6,1.8-2.6,2.3-4.3,2.3h-9.2c-1.8,0.4-3.1-0.5-3.8-2.3c0,0,0-0.8,0.2-1.8c1.2-5.9,6.7-8.3,12.4-8.5
				c0,0,0.8,0,1.9,0.1C37.5,6.2,39.5,6.7,41.2,7.7z M23.4,14.8c-0.1,0.4-0.1,0.7-0.1,0.9c0.2,0.4,0.5,0.5,0.9,0.5l0.3-0.1h9.4
				c0.3,0,2-0.1,2.2-0.8c0-2.5,1.2-4.6,3-6.2c-1.7-0.7-3.6-1-5.4-1C29.1,8.3,24.4,10,23.4,14.8z M23.4,63.1c1,4.8,5.7,6.5,10.3,6.7
				c0.4,0,2.9,0,5.4-1.1c-1.8-1.6-2.9-3.7-2.9-6.2c-0.2-0.7-1.9-0.8-2.2-0.8h-9.5c-0.5-0.1-0.9-0.1-1.2,0.4
				C23.3,62.4,23.3,62.7,23.4,63.1z M43.3,68.8c1.6,0.7,3.5,1,5.7,0.8c7.9-0.7,9.2-4.8,9.6-7c0.2-0.9-0.4-1-1.2-1h-9.7
				c-0.3,0-1.5,0.1-1.7,0.6C46,65.1,45,67.2,43.3,68.8z M21.2,63.6c-0.2-1-0.2-1.8-0.2-1.8c0.6-1.8,2-2.6,3.8-2.3H34
				c1.7,0,4.4,0.8,4.5,2.9c0,2,1.1,3.8,2.8,5.1c1.5-1.1,2.6-2.8,2.6-5.4c0,0,0-0.3,0.1-0.6c0.5-1.7,2.2-2.2,3.9-2.2l9.6,0
				c2.1-0.1,4,1.2,3.5,3.7c-0.6,2.9-2.5,8-11.6,8.8c-2.9,0.2-5.7-0.3-7.9-1.5c-2.3,1.3-5,1.9-7.6,1.8C27.9,71.9,22.4,69.5,21.2,63.6
				z M65.4,57.1c4.8-1,6.5-5.7,6.7-10.3c0-0.4,0-2.9-1.1-5.4c-1.6,1.8-3.7,2.9-6.2,2.9c-0.7,0.2-0.8,1.9-0.8,2.2V56
				c-0.1,0.5-0.1,0.9,0.4,1.2C64.7,57.2,65,57.1,65.4,57.1z M71,37.2c0.7-1.6,1-3.5,0.8-5.7c-0.7-7.9-4.8-9.2-7-9.6
				c-0.9-0.2-1,0.4-1,1.2l0,9.7c0,0.3,0.1,1.5,0.6,1.7C67.3,34.4,69.4,35.5,71,37.2z M65.8,59.3c-1,0.2-1.8,0.2-1.8,0.2
				c-1.8-0.6-2.6-2-2.3-3.8v-9.2c0-1.7,0.8-4.4,2.9-4.5c2,0,3.8-1.1,5.1-2.8c-1.1-1.5-2.8-2.6-5.4-2.6c0,0-0.3,0-0.6-0.1
				c-1.7-0.5-2.2-2.2-2.2-3.9v-9.6c-0.2-6.4,11.4-4.3,12.5,8.2c0.2,2.9-0.3,5.7-1.5,7.9c1.3,2.3,1.9,5,1.8,7.7
				C74.1,52.5,71.7,58.1,65.8,59.3z"/>
		</g>
		<g>
			<g>
				<path class="st0" d="M99.8,29.3l-1.5,4.4c-0.1,0.4-0.3,0.9-0.4,1.5c-0.1,0.6-0.2,1-0.2,1.5c0,0.3,0.1,0.6,0.2,0.9
					c0.1,0.3,0.3,0.5,0.5,0.6c0.2,0.2,0.5,0.3,0.7,0.4c0.3,0.1,0.6,0.1,0.9,0.1h2.2v2.7H88.8v-2.7h0.6c0.5,0,0.9-0.1,1.2-0.2
					c0.4-0.1,0.7-0.3,1.1-0.6c0.3-0.3,0.6-0.7,0.9-1.1c0.3-0.5,0.6-1.1,0.9-1.9l11.1-30.2h7l10.7,30.2c0.3,0.7,0.5,1.3,0.8,1.8
					c0.3,0.5,0.6,0.9,0.9,1.1c0.3,0.3,0.7,0.5,1,0.6c0.4,0.1,0.8,0.2,1.2,0.2h0.9v2.7h-16.9v-2.7h2c0.3,0,0.5,0,0.8-0.1
					c0.3-0.1,0.5-0.2,0.7-0.4c0.2-0.2,0.4-0.4,0.5-0.6c0.1-0.3,0.2-0.6,0.2-0.9c0-0.4-0.1-0.8-0.2-1.2c-0.1-0.4-0.2-0.7-0.3-1
					l-1.8-5.1H99.8z M108.5,17.7c-0.2-0.6-0.4-1.2-0.6-1.8c-0.2-0.6-0.4-1.3-0.6-2c-0.2-0.7-0.4-1.3-0.6-2c-0.2-0.7-0.3-1.3-0.5-1.9
					c-0.2,0.5-0.3,1.1-0.5,1.7c-0.2,0.6-0.4,1.3-0.6,1.9c-0.2,0.7-0.5,1.3-0.7,2c-0.2,0.7-0.4,1.3-0.6,1.9l-3,8.7h10.4L108.5,17.7z"
					/>
				<path class="st0" d="M143.8,41.8c-3.2,0-5.9-0.5-8.3-1.4c-2.4-0.9-4.3-2.2-5.9-3.8c-1.6-1.7-2.7-3.6-3.5-6
					c-0.8-2.3-1.2-4.9-1.2-7.7c0-2.8,0.4-5.3,1.2-7.6c0.8-2.3,2-4.3,3.6-5.9c1.6-1.7,3.6-2.9,6-3.9c2.4-0.9,5.2-1.4,8.3-1.4
					c2.1,0,4,0.2,5.6,0.5c1.6,0.3,2.9,0.7,4,1.3c1.1,0.5,1.9,1.2,2.4,1.9c0.5,0.7,0.8,1.5,0.8,2.3c0,0.6-0.1,1.2-0.4,1.7
					c-0.3,0.5-0.7,1-1.3,1.4c-0.6,0.4-1.3,0.7-2.1,0.9c-0.8,0.2-1.8,0.3-2.9,0.3c0-1-0.1-2-0.4-2.9c-0.3-0.9-0.6-1.6-1.2-2.2
					c-0.5-0.6-1.2-1.1-2-1.4c-0.8-0.3-1.7-0.5-2.8-0.5c-1.9,0-3.5,0.3-4.8,1c-1.3,0.7-2.4,1.7-3.2,3c-0.8,1.3-1.4,2.9-1.8,4.9
					c-0.4,1.9-0.6,4.1-0.6,6.6s0.2,4.7,0.6,6.6c0.4,1.9,1,3.5,1.9,4.8s2,2.3,3.4,3s3.1,1,5.1,1c0.6,0,1.3,0,1.9-0.1
					c0.6-0.1,1.3-0.1,1.9-0.3v-7.5c0-1.4-0.3-2.3-0.9-2.9c-0.6-0.5-1.5-0.8-2.7-0.8H144v-2.7h16.1v2.7h-0.7c-0.5,0-1,0.1-1.4,0.2
					c-0.4,0.1-0.7,0.3-1,0.6c-0.3,0.3-0.4,0.7-0.6,1.2c-0.1,0.5-0.2,1.1-0.2,1.8v8.4c-2,0.9-4,1.6-6.1,2.1
					C148.3,41.6,146.1,41.8,143.8,41.8z"/>
				<path class="st0" d="M189.7,41.3v-2.7h0.5c0.5,0,1,0,1.4-0.1c0.4-0.1,0.7-0.2,1-0.4c0.3-0.2,0.5-0.5,0.6-0.9
					c0.1-0.4,0.2-0.9,0.2-1.5v-26l-10.3,31.6h-3.5L168.8,9.8v25.5c0,0.7,0.1,1.3,0.3,1.8c0.2,0.4,0.4,0.8,0.8,1
					c0.3,0.2,0.7,0.4,1.2,0.5c0.5,0.1,1,0.1,1.6,0.1h0.3v2.7h-12.7v-2.7h2.2c0.4,0,0.7,0,1-0.1c0.3-0.1,0.6-0.2,0.8-0.4
					c0.2-0.2,0.4-0.5,0.6-0.9c0.1-0.4,0.2-0.9,0.2-1.6v-25c0-0.7-0.1-1.2-0.2-1.6c-0.1-0.4-0.3-0.7-0.6-0.9
					c-0.2-0.2-0.5-0.4-0.8-0.4c-0.3-0.1-0.7-0.1-1-0.1h-2.2V4.7h14.8l8.5,24.8l8.2-24.8h14.5v2.7H204c-0.4,0-0.7,0-1,0.1
					c-0.3,0.1-0.6,0.2-0.8,0.5c-0.2,0.2-0.4,0.6-0.6,1c-0.1,0.4-0.2,1-0.2,1.8v24.5c0,0.7,0.1,1.3,0.2,1.8c0.1,0.4,0.3,0.8,0.6,1
					c0.2,0.2,0.5,0.4,0.8,0.5c0.3,0.1,0.7,0.1,1,0.1h2.2v2.7H189.7z"/>
			</g>
			<g>
				<path class="st1" d="M95.7,68.5c-0.8,0-1.5-0.1-2.1-0.2C93,68,92.4,67.8,92,67.4c-0.4-0.4-0.8-0.8-1-1.4
					c-0.2-0.6-0.3-1.2-0.3-2.1v-7.7c0-0.3,0-0.5-0.1-0.7c-0.1-0.2-0.2-0.3-0.4-0.4c-0.1-0.1-0.3-0.2-0.5-0.2s-0.4,0-0.6,0h-0.3v-0.8
					h5.8V55h-0.3c-0.2,0-0.4,0-0.6,0s-0.4,0.1-0.5,0.2s-0.3,0.2-0.3,0.4c-0.1,0.2-0.1,0.4-0.1,0.7v7.7c0,0.6,0.1,1.1,0.2,1.5
					c0.2,0.4,0.4,0.7,0.7,1c0.3,0.3,0.6,0.4,1,0.6c0.4,0.1,0.8,0.2,1.3,0.2c0.6,0,1.1-0.1,1.5-0.2c0.4-0.2,0.8-0.4,1-0.6
					c0.3-0.3,0.5-0.6,0.6-1c0.1-0.4,0.2-0.8,0.2-1.2v-7.9c0-0.3,0-0.5-0.1-0.7c-0.1-0.2-0.2-0.3-0.4-0.4S98.5,55,98.3,55
					c-0.2,0-0.4,0-0.6,0h-0.3v-0.8h5V55h-0.3c-0.2,0-0.4,0-0.6,0c-0.2,0-0.4,0.1-0.5,0.2s-0.3,0.2-0.3,0.4c-0.1,0.2-0.1,0.4-0.1,0.7
					v7.8c0,0.7-0.1,1.2-0.3,1.8s-0.5,1-0.9,1.3c-0.4,0.4-0.9,0.6-1.5,0.8S96.5,68.5,95.7,68.5z"/>
				<path class="st1" d="M114,68.3l-7.4-11.4V66c0,0.3,0,0.6,0.1,0.7c0.1,0.2,0.2,0.3,0.3,0.4s0.3,0.2,0.5,0.2s0.4,0,0.6,0h0.3v0.8
					h-5v-0.8h0.3c0.2,0,0.4,0,0.6,0c0.2,0,0.4-0.1,0.5-0.2c0.1-0.1,0.3-0.2,0.3-0.4c0.1-0.2,0.1-0.4,0.1-0.7v-9.7
					c0-0.3,0-0.5-0.1-0.7c-0.1-0.2-0.2-0.3-0.4-0.4c-0.1-0.1-0.3-0.2-0.5-0.2s-0.4,0-0.6,0h-0.3v-0.8h3.6l7.1,10.9v-8.8
					c0-0.3,0-0.5-0.1-0.7c-0.1-0.2-0.2-0.3-0.4-0.4s-0.3-0.2-0.5-0.2s-0.4,0-0.6,0h-0.3v-0.8h5V55H117c-0.2,0-0.4,0-0.6,0
					c-0.2,0-0.4,0.1-0.5,0.2s-0.3,0.2-0.3,0.4c-0.1,0.2-0.1,0.4-0.1,0.7v11.9H114z"/>
				<path class="st1" d="M118.6,68.3v-0.8h0.3c0.2,0,0.4,0,0.6,0c0.2,0,0.4-0.1,0.5-0.2s0.3-0.2,0.3-0.4c0.1-0.2,0.1-0.4,0.1-0.7
					v-9.6c0-0.3,0-0.6-0.1-0.7c-0.1-0.2-0.2-0.3-0.3-0.4s-0.3-0.2-0.5-0.2c-0.2,0-0.4,0-0.6,0h-0.3v-0.8h5.8V55h-0.3
					c-0.2,0-0.4,0-0.6,0s-0.4,0.1-0.5,0.2c-0.1,0.1-0.3,0.2-0.3,0.4c-0.1,0.2-0.1,0.4-0.1,0.7V66c0,0.3,0,0.6,0.1,0.7
					c0.1,0.2,0.2,0.3,0.3,0.4c0.1,0.1,0.3,0.2,0.5,0.2s0.4,0,0.6,0h0.3v0.8H118.6z"/>
				<path class="st1" d="M131,68.3L126.8,56c-0.1-0.2-0.1-0.4-0.2-0.5c-0.1-0.1-0.2-0.2-0.3-0.3c-0.1-0.1-0.2-0.1-0.4-0.2
					s-0.3,0-0.5,0h-0.3v-0.8h5.4V55h-0.5c-0.4,0-0.7,0.1-0.9,0.2c-0.2,0.2-0.3,0.4-0.3,0.7c0,0.1,0,0.2,0,0.3c0,0.1,0.1,0.2,0.1,0.4
					l2.2,6.4c0.2,0.6,0.4,1.2,0.5,1.7c0.1,0.6,0.3,1.1,0.4,1.5c0.1-0.5,0.2-1,0.4-1.5s0.3-1.1,0.5-1.7l2.2-6.3
					c0.1-0.2,0.1-0.3,0.1-0.5s0-0.3,0-0.4c0-0.3-0.1-0.6-0.3-0.7s-0.5-0.2-1-0.2h-0.5v-0.8h4.8V55h-0.4c-0.2,0-0.4,0-0.5,0.1
					s-0.3,0.1-0.4,0.2c-0.1,0.1-0.2,0.3-0.3,0.5s-0.2,0.5-0.3,0.8l-4.1,11.8H131z"/>
				<path class="st1" d="M143.1,67.3h3.8c0.3,0,0.6,0,0.8-0.1c0.2-0.1,0.4-0.2,0.6-0.4s0.3-0.3,0.3-0.5c0.1-0.2,0.1-0.4,0.2-0.6
					l0.1-0.9h1l-0.1,3.5h-10.6v-0.8h0.3c0.2,0,0.4,0,0.6,0c0.2,0,0.4-0.1,0.5-0.2c0.1-0.1,0.3-0.2,0.4-0.4c0.1-0.2,0.1-0.4,0.1-0.7
					v-9.7c0-0.3,0-0.6-0.1-0.7c-0.1-0.2-0.2-0.3-0.3-0.4s-0.3-0.2-0.5-0.2c-0.2,0-0.4,0-0.6,0h-0.3v-0.8h10l0.1,3.5h-1l-0.1-0.9
					c0-0.2-0.1-0.4-0.2-0.6s-0.2-0.4-0.3-0.5c-0.1-0.1-0.3-0.3-0.5-0.4c-0.2-0.1-0.5-0.1-0.8-0.1h-3.3v5.3h4.8v1h-4.8V67.3z"/>
				<path class="st1" d="M161.8,65.8c0.3,0.5,0.7,0.9,1,1.2c0.3,0.3,0.7,0.4,1.1,0.4h0.1v0.8h-0.3c-0.6,0-1.1,0-1.5-0.1
					s-0.7-0.1-1-0.3s-0.5-0.3-0.7-0.5c-0.2-0.2-0.4-0.5-0.6-0.9l-2.7-4.5h-1.6v4.1c0,0.3,0,0.5,0.1,0.7c0.1,0.2,0.2,0.3,0.4,0.4
					c0.1,0.1,0.3,0.1,0.5,0.2s0.4,0,0.6,0h0.3v0.8h-5.8v-0.8h0.3c0.2,0,0.4,0,0.6,0c0.2,0,0.4-0.1,0.5-0.2c0.1-0.1,0.3-0.2,0.4-0.4
					c0.1-0.2,0.1-0.4,0.1-0.7v-9.8c0-0.3,0-0.5-0.1-0.7c-0.1-0.2-0.2-0.3-0.4-0.4s-0.3-0.2-0.5-0.2c-0.2,0-0.4,0-0.6,0h-0.3v-0.8
					h5.3c1.7,0,3,0.3,3.8,1c0.8,0.6,1.3,1.6,1.3,2.9c0,0.5-0.1,1-0.3,1.4s-0.4,0.7-0.7,1c-0.3,0.3-0.6,0.5-0.9,0.7
					c-0.3,0.2-0.7,0.3-1,0.5L161.8,65.8z M155.4,61.1h1.4c0.6,0,1.1-0.1,1.5-0.2c0.4-0.1,0.7-0.3,0.9-0.6s0.4-0.6,0.5-1
					s0.1-0.8,0.1-1.4c0-0.5-0.1-1-0.2-1.3c-0.1-0.4-0.3-0.7-0.5-0.9c-0.2-0.2-0.6-0.4-1-0.5c-0.4-0.1-0.9-0.2-1.4-0.2h-1.3V61.1z"/>
				<path class="st1" d="M168.7,68.5c-0.6,0-1.2-0.1-1.7-0.2s-0.9-0.3-1.2-0.6c-0.3-0.2-0.6-0.5-0.7-0.9c-0.2-0.3-0.3-0.7-0.3-1.1
					c0-0.4,0.1-0.7,0.4-1c0.2-0.2,0.6-0.4,1.1-0.4c0,0.4,0.1,0.8,0.2,1.2c0.1,0.4,0.3,0.7,0.5,1c0.2,0.3,0.5,0.5,0.8,0.7
					c0.3,0.2,0.7,0.3,1.2,0.3c0.9,0,1.6-0.2,2.1-0.6c0.5-0.4,0.7-1,0.7-1.9c0-0.4-0.1-0.7-0.2-1c-0.1-0.3-0.3-0.5-0.5-0.8
					c-0.2-0.2-0.6-0.5-0.9-0.7c-0.4-0.2-0.9-0.4-1.5-0.7c-0.6-0.3-1.1-0.5-1.6-0.8c-0.5-0.3-0.8-0.6-1.1-1s-0.5-0.7-0.7-1.2
					S165,58,165,57.5c0-0.6,0.1-1.1,0.3-1.5c0.2-0.4,0.5-0.8,0.9-1.1c0.4-0.3,0.8-0.5,1.4-0.7s1.1-0.2,1.7-0.2
					c0.6,0,1.1,0.1,1.6,0.2c0.5,0.1,0.8,0.3,1.2,0.5c0.3,0.2,0.6,0.4,0.7,0.7c0.2,0.3,0.2,0.5,0.2,0.8c0,0.4-0.1,0.7-0.4,1
					s-0.7,0.3-1.1,0.3c0-0.3,0-0.6-0.1-0.9s-0.2-0.6-0.4-0.8c-0.2-0.2-0.4-0.4-0.7-0.6c-0.3-0.1-0.6-0.2-1.1-0.2
					c-0.4,0-0.7,0.1-1,0.2c-0.3,0.1-0.6,0.3-0.8,0.5c-0.2,0.2-0.4,0.4-0.5,0.7c-0.1,0.3-0.2,0.6-0.2,0.9c0,0.4,0.1,0.7,0.2,1
					s0.3,0.6,0.5,0.8c0.2,0.2,0.6,0.5,1,0.7c0.4,0.2,0.9,0.4,1.5,0.7c0.6,0.2,1.1,0.5,1.6,0.8c0.5,0.3,0.8,0.6,1.2,0.9
					c0.3,0.3,0.6,0.7,0.7,1.1c0.2,0.4,0.3,0.9,0.3,1.4c0,0.6-0.1,1.2-0.3,1.7c-0.2,0.5-0.6,0.9-1,1.3c-0.4,0.3-0.9,0.6-1.5,0.8
					C170.1,68.4,169.4,68.5,168.7,68.5z"/>
				<path class="st1" d="M175.3,68.3v-0.8h0.3c0.2,0,0.4,0,0.6,0c0.2,0,0.4-0.1,0.5-0.2s0.3-0.2,0.3-0.4c0.1-0.2,0.1-0.4,0.1-0.7
					v-9.6c0-0.3,0-0.6-0.1-0.7c-0.1-0.2-0.2-0.3-0.3-0.4s-0.3-0.2-0.5-0.2c-0.2,0-0.4,0-0.6,0h-0.3v-0.8h5.8V55h-0.3
					c-0.2,0-0.4,0-0.6,0s-0.4,0.1-0.5,0.2c-0.1,0.1-0.3,0.2-0.3,0.4c-0.1,0.2-0.1,0.4-0.1,0.7V66c0,0.3,0,0.6,0.1,0.7
					c0.1,0.2,0.2,0.3,0.3,0.4c0.1,0.1,0.3,0.2,0.5,0.2s0.4,0,0.6,0h0.3v0.8H175.3z"/>
				<path class="st1" d="M188.9,66c0,0.3,0,0.6,0.1,0.7c0.1,0.2,0.2,0.3,0.3,0.4c0.1,0.1,0.3,0.2,0.5,0.2c0.2,0,0.4,0,0.6,0h0.5v0.8
					h-6.2v-0.8h0.5c0.2,0,0.4,0,0.6,0s0.4-0.1,0.5-0.2c0.1-0.1,0.3-0.2,0.4-0.4c0.1-0.2,0.1-0.4,0.1-0.7v-11H185
					c-0.3,0-0.5,0-0.7,0.1c-0.2,0.1-0.4,0.2-0.5,0.4c-0.1,0.1-0.2,0.3-0.3,0.5s-0.1,0.4-0.1,0.6l-0.1,0.9h-1l0.1-3.5h11.1l0.1,3.5
					h-1l-0.1-0.9c0-0.2-0.1-0.4-0.1-0.6s-0.2-0.4-0.3-0.5c-0.1-0.1-0.3-0.3-0.5-0.4c-0.2-0.1-0.4-0.1-0.7-0.1h-1.9V66z"/>
				<path class="st1" d="M197.1,68.3v-0.8h0.5c0.2,0,0.4,0,0.6,0c0.2,0,0.4-0.1,0.5-0.2c0.1-0.1,0.3-0.2,0.4-0.4
					c0.1-0.2,0.1-0.4,0.1-0.7v-3.7l-3.7-6.4c-0.1-0.2-0.2-0.3-0.3-0.5s-0.2-0.2-0.3-0.3s-0.2-0.1-0.4-0.2s-0.3-0.1-0.4-0.1h-0.3
					v-0.8h5.4V55h-0.7c-0.2,0-0.3,0-0.4,0c-0.1,0-0.2,0.1-0.3,0.1c-0.1,0.1-0.1,0.1-0.1,0.2c0,0.1,0,0.2,0,0.2c0,0.2,0,0.4,0.1,0.6
					c0.1,0.2,0.2,0.4,0.2,0.5l1.5,2.6c0.2,0.4,0.4,0.8,0.6,1.2s0.3,0.7,0.4,1.1c0.1-0.1,0.1-0.3,0.2-0.5c0.1-0.2,0.2-0.4,0.3-0.6
					c0.1-0.2,0.2-0.4,0.3-0.6c0.1-0.2,0.2-0.4,0.3-0.6L203,57c0.1-0.2,0.2-0.4,0.3-0.6s0.1-0.4,0.1-0.5c0-0.3-0.1-0.5-0.3-0.7
					c-0.2-0.1-0.5-0.2-0.9-0.2h-0.6v-0.8h4.8V55h-0.2c-0.1,0-0.3,0-0.4,0.1c-0.1,0-0.3,0.1-0.4,0.3c-0.1,0.1-0.3,0.3-0.4,0.5
					c-0.1,0.2-0.3,0.4-0.5,0.7l-3.3,5.9V66c0,0.3,0,0.6,0.1,0.7c0.1,0.2,0.2,0.3,0.3,0.4s0.3,0.2,0.5,0.2c0.2,0,0.4,0,0.6,0h0.5v0.8
					H197.1z"/>
			</g>
			<line class="st2" x1="90" y1="48.6" x2="205" y2="48.6"/>
		</g>
	</g>
	<g>
		<path class="st1" d="M132.3,87.3c0,0.9-0.1,1.7-0.3,2.5c-0.2,0.7-0.6,1.4-1,1.9c-0.4,0.5-1,0.9-1.6,1.2c-0.6,0.3-1.4,0.4-2.2,0.4
			c-0.9,0-1.6-0.1-2.3-0.4c-0.7-0.3-1.2-0.7-1.6-1.2c-0.4-0.5-0.8-1.2-1-1.9c-0.2-0.8-0.3-1.6-0.3-2.5s0.1-1.7,0.3-2.5
			s0.5-1.4,1-1.9c0.4-0.5,1-0.9,1.6-1.2c0.7-0.3,1.4-0.4,2.3-0.4c0.8,0,1.6,0.1,2.2,0.4c0.6,0.3,1.2,0.7,1.6,1.2s0.8,1.2,1,1.9
			S132.3,86.4,132.3,87.3z M123.7,87.3c0,0.8,0.1,1.6,0.2,2.2s0.3,1.2,0.6,1.6s0.6,0.8,1,1s1,0.4,1.6,0.4s1.1-0.1,1.6-0.4
			s0.8-0.6,1-1c0.3-0.4,0.5-1,0.6-1.6c0.1-0.6,0.2-1.4,0.2-2.2c0-0.8-0.1-1.6-0.2-2.2c-0.1-0.6-0.3-1.2-0.6-1.6
			c-0.3-0.4-0.6-0.8-1-1c-0.4-0.2-0.9-0.3-1.6-0.3c-0.6,0-1.1,0.1-1.6,0.3c-0.4,0.2-0.8,0.6-1.1,1s-0.5,1-0.6,1.6
			S123.7,86.5,123.7,87.3z"/>
		<path class="st1" d="M138.2,92.5v0.7h-4.5v-0.7h0.1c0.2,0,0.4,0,0.5,0c0.2,0,0.3-0.1,0.4-0.2c0.1-0.1,0.2-0.2,0.3-0.4
			c0.1-0.2,0.1-0.4,0.1-0.6v-5.2c0-0.2,0-0.4-0.1-0.6c-0.1-0.1-0.2-0.3-0.3-0.3s-0.3-0.1-0.4-0.2c-0.2,0-0.3,0-0.5,0h0v-0.7h2.7
			l0.2,1.3h0.1c0.2-0.3,0.4-0.6,0.5-0.8c0.2-0.2,0.4-0.4,0.6-0.5s0.4-0.2,0.7-0.2c0.2,0,0.5-0.1,0.8-0.1c0.4,0,0.8,0.1,1.2,0.2
			c0.3,0.1,0.6,0.3,0.9,0.6s0.4,0.6,0.5,1c0.1,0.4,0.2,0.9,0.2,1.5v3.9c0,0.3,0,0.5,0.1,0.6c0.1,0.2,0.2,0.3,0.3,0.4
			c0.1,0.1,0.2,0.1,0.4,0.2s0.3,0,0.5,0h0.1v0.7h-2.9v-5.7c0-0.4,0-0.7-0.1-1c-0.1-0.3-0.2-0.5-0.3-0.7c-0.1-0.2-0.3-0.3-0.6-0.4
			c-0.2-0.1-0.5-0.1-0.8-0.1c-0.4,0-0.7,0.1-1,0.2s-0.5,0.3-0.6,0.6s-0.3,0.5-0.3,0.9c-0.1,0.3-0.1,0.7-0.1,1v3.5
			c0,0.2,0,0.4,0.1,0.6c0.1,0.1,0.2,0.3,0.3,0.3s0.3,0.1,0.4,0.1C137.8,92.5,138,92.5,138.2,92.5L138.2,92.5z"/>
		<path class="st1" d="M144.4,92.5c0.2,0,0.4,0,0.5,0c0.2,0,0.3-0.1,0.4-0.2c0.1-0.1,0.2-0.2,0.3-0.4c0.1-0.2,0.1-0.4,0.1-0.6v-8.9
			c0-0.2,0-0.4-0.1-0.6c-0.1-0.1-0.2-0.3-0.3-0.3s-0.3-0.1-0.4-0.2c-0.2,0-0.3,0-0.5,0h-0.2v-0.7h3.1v10.7c0,0.3,0,0.5,0.1,0.6
			c0.1,0.2,0.2,0.3,0.3,0.4c0.1,0.1,0.3,0.1,0.4,0.2c0.2,0,0.3,0,0.5,0h0.2v0.7h-4.7v-0.7H144.4z"/>
		<path class="st1" d="M149.7,92.5c0.2,0,0.4,0,0.5,0c0.2,0,0.3-0.1,0.4-0.1s0.2-0.2,0.3-0.3c0.1-0.1,0.1-0.3,0.1-0.6v-5.3
			c0-0.2,0-0.4-0.1-0.6c-0.1-0.1-0.2-0.3-0.3-0.3s-0.3-0.1-0.4-0.2c-0.2,0-0.3,0-0.5,0h0v-0.7h3v7c0,0.3,0,0.5,0.1,0.6
			c0.1,0.2,0.2,0.3,0.3,0.4c0.1,0.1,0.3,0.1,0.4,0.2s0.3,0,0.5,0h0.2v0.7h-4.7v-0.7H149.7z M150.8,81.6c0-0.2,0-0.4,0.1-0.5
			c0-0.1,0.1-0.2,0.2-0.3c0.1-0.1,0.2-0.1,0.3-0.2c0.1,0,0.2,0,0.4,0c0.1,0,0.3,0,0.4,0c0.1,0,0.2,0.1,0.3,0.2
			c0.1,0.1,0.2,0.2,0.2,0.3c0.1,0.1,0.1,0.3,0.1,0.5s0,0.4-0.1,0.5c-0.1,0.1-0.1,0.2-0.2,0.3c-0.1,0.1-0.2,0.1-0.3,0.2
			s-0.2,0.1-0.4,0.1c-0.1,0-0.3,0-0.4-0.1s-0.2-0.1-0.3-0.2c-0.1-0.1-0.2-0.2-0.2-0.3C150.8,82,150.8,81.8,150.8,81.6z"/>
		<path class="st1" d="M159.3,92.5v0.7h-4.5v-0.7h0.1c0.2,0,0.4,0,0.5,0c0.2,0,0.3-0.1,0.4-0.2c0.1-0.1,0.2-0.2,0.3-0.4
			c0.1-0.2,0.1-0.4,0.1-0.6v-5.2c0-0.2,0-0.4-0.1-0.6c-0.1-0.1-0.2-0.3-0.3-0.3s-0.3-0.1-0.4-0.2c-0.2,0-0.3,0-0.5,0h0v-0.7h2.7
			l0.2,1.3h0.1c0.2-0.3,0.4-0.6,0.5-0.8c0.2-0.2,0.4-0.4,0.6-0.5s0.4-0.2,0.7-0.2c0.2,0,0.5-0.1,0.8-0.1c0.4,0,0.8,0.1,1.2,0.2
			c0.3,0.1,0.6,0.3,0.9,0.6s0.4,0.6,0.5,1c0.1,0.4,0.2,0.9,0.2,1.5v3.9c0,0.3,0,0.5,0.1,0.6c0.1,0.2,0.2,0.3,0.3,0.4
			c0.1,0.1,0.2,0.1,0.4,0.2s0.3,0,0.5,0h0.1v0.7h-2.9v-5.7c0-0.4,0-0.7-0.1-1c-0.1-0.3-0.2-0.5-0.3-0.7c-0.1-0.2-0.3-0.3-0.6-0.4
			c-0.2-0.1-0.5-0.1-0.8-0.1c-0.4,0-0.7,0.1-1,0.2s-0.5,0.3-0.6,0.6s-0.3,0.5-0.3,0.9c-0.1,0.3-0.1,0.7-0.1,1v3.5
			c0,0.2,0,0.4,0.1,0.6c0.1,0.1,0.2,0.3,0.3,0.3s0.3,0.1,0.4,0.1C158.9,92.5,159.1,92.5,159.3,92.5L159.3,92.5z"/>
		<path class="st1" d="M169.8,93.4c-0.6,0-1.1-0.1-1.6-0.3s-0.9-0.5-1.2-0.9c-0.3-0.4-0.6-0.9-0.8-1.4c-0.2-0.6-0.3-1.2-0.3-1.9
			c0-1.5,0.3-2.7,1-3.5s1.5-1.2,2.7-1.2c0.5,0,1,0.1,1.4,0.3c0.4,0.2,0.8,0.4,1.1,0.7s0.5,0.7,0.7,1.2c0.2,0.5,0.2,1.1,0.2,1.7v0.8
			h-5.5c0,0.6,0.1,1.1,0.2,1.6c0.1,0.4,0.3,0.8,0.5,1.1s0.5,0.5,0.8,0.6s0.7,0.2,1,0.2c0.3,0,0.6,0,0.8-0.1c0.2-0.1,0.5-0.2,0.7-0.3
			c0.2-0.1,0.4-0.2,0.5-0.4c0.2-0.1,0.3-0.3,0.4-0.4c0.1,0,0.1,0.1,0.2,0.2s0.1,0.2,0.1,0.4c0,0.2-0.1,0.3-0.2,0.5
			c-0.1,0.2-0.3,0.4-0.5,0.5c-0.2,0.2-0.5,0.3-0.9,0.4S170.3,93.4,169.8,93.4z M169.6,85.1c-0.6,0-1.1,0.2-1.4,0.7
			c-0.3,0.5-0.5,1.2-0.6,2.2h3.8c0-0.4,0-0.8-0.1-1.2s-0.2-0.7-0.3-0.9s-0.3-0.5-0.6-0.6C170.3,85.1,170,85.1,169.6,85.1z"/>
	</g>
</g>
</svg>
